{
	"patcher" : 	{
		"fileversion" : 1,
		"appversion" : 		{
			"major" : 7,
			"minor" : 3,
			"revision" : 3,
			"architecture" : "x86",
			"modernui" : 1
		}
,
		"rect" : [ 40.0, 85.0, 472.0, 240.0 ],
		"bgcolor" : [ 0.239216, 0.254902, 0.278431, 1.0 ],
		"bglocked" : 0,
		"openinpresentation" : 1,
		"default_fontsize" : 12.0,
		"default_fontface" : 0,
		"default_fontname" : "Arial",
		"gridonopen" : 1,
		"gridsize" : [ 15.0, 15.0 ],
		"gridsnaponopen" : 1,
		"objectsnaponopen" : 1,
		"statusbarvisible" : 2,
		"toolbarvisible" : 1,
		"lefttoolbarpinned" : 0,
		"toptoolbarpinned" : 0,
		"righttoolbarpinned" : 0,
		"bottomtoolbarpinned" : 0,
		"toolbars_unpinned_last_save" : 0,
		"tallnewobj" : 0,
		"boxanimatetime" : 200,
		"enablehscroll" : 1,
		"enablevscroll" : 1,
		"devicewidth" : 0.0,
		"description" : "",
		"digest" : "",
		"tags" : "",
		"style" : "velvet",
		"subpatcher_template" : "",
		"boxes" : [ 			{
				"box" : 				{
					"fontname" : "Futura Medium",
					"fontsize" : 12.0,
					"id" : "obj-53",
					"maxclass" : "comment",
					"numinlets" : 1,
					"numoutlets" : 0,
					"patching_rect" : [ 13.0, 848.0, 88.0, 22.0 ],
					"style" : "",
					"text" : "test sequence",
					"textcolor" : [ 1.0, 1.0, 1.0, 1.0 ]
				}

			}
, 			{
				"box" : 				{
					"fontname" : "Futura Medium",
					"fontsize" : 12.0,
					"id" : "obj-27",
					"maxclass" : "comment",
					"numinlets" : 1,
					"numoutlets" : 0,
					"patching_rect" : [ 433.0, 551.5, 154.0, 22.0 ],
					"style" : "",
					"text" : "bang logo / web url link",
					"textcolor" : [ 1.0, 1.0, 1.0, 1.0 ]
				}

			}
, 			{
				"box" : 				{
					"fontname" : "Futura Medium",
					"fontsize" : 12.0,
					"id" : "obj-24",
					"maxclass" : "comment",
					"numinlets" : 1,
					"numoutlets" : 0,
					"patching_rect" : [ 8.0, 551.5, 178.0, 22.0 ],
					"style" : "",
					"text" : "i.p. address/port assignment",
					"textcolor" : [ 1.0, 1.0, 1.0, 1.0 ]
				}

			}
, 			{
				"box" : 				{
					"fontname" : "Futura Medium",
					"fontsize" : 12.0,
					"id" : "obj-19",
					"maxclass" : "comment",
					"numinlets" : 1,
					"numoutlets" : 0,
					"patching_rect" : [ 525.5, 242.375, 105.0, 22.0 ],
					"style" : "",
					"text" : "time keeping",
					"textcolor" : [ 1.0, 1.0, 1.0, 1.0 ]
				}

			}
, 			{
				"box" : 				{
					"fontname" : "Futura Medium",
					"id" : "obj-16",
					"maxclass" : "comment",
					"numinlets" : 1,
					"numoutlets" : 0,
					"patching_rect" : [ 8.0, 242.375, 149.0, 22.0 ],
					"style" : "",
					"text" : "message collection",
					"textcolor" : [ 1.0, 1.0, 1.0, 1.0 ]
				}

			}
, 			{
				"box" : 				{
					"id" : "obj-65",
					"maxclass" : "message",
					"numinlets" : 2,
					"numoutlets" : 1,
					"outlettype" : [ "" ],
					"patching_rect" : [ 333.0, 140.0, 141.0, 22.0 ],
					"style" : "",
					"text" : "/message1/test1/ 0.1"
				}

			}
, 			{
				"box" : 				{
					"id" : "obj-29",
					"maxclass" : "newobj",
					"numinlets" : 1,
					"numoutlets" : 0,
					"patching_rect" : [ 493.5, 831.0, 46.0, 22.0 ],
					"style" : "",
					"text" : "s clear"
				}

			}
, 			{
				"box" : 				{
					"id" : "obj-57",
					"maxclass" : "button",
					"numinlets" : 1,
					"numoutlets" : 1,
					"outlettype" : [ "bang" ],
					"patching_rect" : [ 493.5, 738.0, 24.0, 24.0 ],
					"style" : ""
				}

			}
, 			{
				"box" : 				{
					"id" : "obj-34",
					"linecount" : 2,
					"maxclass" : "comment",
					"numinlets" : 1,
					"numoutlets" : 0,
					"patching_rect" : [ 537.0, 769.0, 150.0, 33.0 ],
					"style" : "",
					"text" : "clears window after test sequence",
					"textcolor" : [ 1.0, 1.0, 1.0, 1.0 ]
				}

			}
, 			{
				"box" : 				{
					"id" : "obj-30",
					"maxclass" : "message",
					"numinlets" : 2,
					"numoutlets" : 1,
					"outlettype" : [ "" ],
					"patching_rect" : [ 493.5, 800.0, 29.5, 22.0 ],
					"style" : "",
					"text" : "set"
				}

			}
, 			{
				"box" : 				{
					"format" : 6,
					"id" : "obj-18",
					"maxclass" : "flonum",
					"numinlets" : 1,
					"numoutlets" : 2,
					"outlettype" : [ "", "bang" ],
					"parameter_enable" : 0,
					"patching_rect" : [ 235.5, 690.0, 50.0, 22.0 ],
					"presentation" : 1,
					"presentation_rect" : [ 17.0, 194.007446, 50.0, 22.0 ],
					"style" : ""
				}

			}
, 			{
				"box" : 				{
					"id" : "obj-31",
					"maxclass" : "comment",
					"numinlets" : 1,
					"numoutlets" : 0,
					"patching_rect" : [ 286.5, 690.0, 108.0, 20.0 ],
					"presentation" : 1,
					"presentation_rect" : [ 72.5, 194.007446, 121.0, 20.0 ],
					"style" : "",
					"text" : "sec b/w messages",
					"textcolor" : [ 1.0, 1.0, 1.0, 1.0 ]
				}

			}
, 			{
				"box" : 				{
					"id" : "obj-32",
					"maxclass" : "newobj",
					"numinlets" : 2,
					"numoutlets" : 1,
					"outlettype" : [ "bang" ],
					"patching_rect" : [ 493.5, 769.0, 39.0, 22.0 ],
					"style" : "",
					"text" : "delay"
				}

			}
, 			{
				"box" : 				{
					"id" : "obj-154",
					"maxclass" : "newobj",
					"numinlets" : 1,
					"numoutlets" : 1,
					"outlettype" : [ "" ],
					"patching_rect" : [ 235.5, 665.0, 82.0, 22.0 ],
					"style" : "",
					"text" : "loadmess 0.5"
				}

			}
, 			{
				"box" : 				{
					"id" : "obj-35",
					"maxclass" : "newobj",
					"numinlets" : 1,
					"numoutlets" : 0,
					"patching_rect" : [ 552.0, 627.0, 110.0, 22.0 ],
					"style" : "",
					"text" : "s portHostRequest"
				}

			}
, 			{
				"box" : 				{
					"id" : "obj-36",
					"maxclass" : "newobj",
					"numinlets" : 1,
					"numoutlets" : 1,
					"outlettype" : [ "bang" ],
					"patching_rect" : [ 552.0, 599.0, 60.0, 22.0 ],
					"style" : "",
					"text" : "loadbang"
				}

			}
, 			{
				"box" : 				{
					"id" : "obj-75",
					"maxclass" : "newobj",
					"numinlets" : 1,
					"numoutlets" : 0,
					"patching_rect" : [ 16.5, 709.0, 93.0, 22.0 ],
					"style" : "",
					"text" : "s collMessages"
				}

			}
, 			{
				"box" : 				{
					"id" : "obj-74",
					"maxclass" : "newobj",
					"numinlets" : 0,
					"numoutlets" : 1,
					"outlettype" : [ "" ],
					"patching_rect" : [ 339.0, 748.0, 51.0, 22.0 ],
					"style" : "",
					"text" : "r length"
				}

			}
, 			{
				"box" : 				{
					"id" : "obj-40",
					"maxclass" : "button",
					"numinlets" : 1,
					"numoutlets" : 1,
					"outlettype" : [ "bang" ],
					"patching_rect" : [ 198.5, 695.0, 24.0, 24.0 ],
					"style" : ""
				}

			}
, 			{
				"box" : 				{
					"activebgcolor" : [ 0.306709, 0.189298, 0.382495, 1.0 ],
					"activebgoncolor" : [ 0.313637, 0.193289, 0.391324, 1.0 ],
					"activetextcolor" : [ 1.0, 1.0, 1.0, 1.0 ],
					"activetextoncolor" : [ 0.862745, 0.870588, 0.878431, 1.0 ],
					"fontname" : "Futura Medium",
					"fontsize" : 16.0,
					"id" : "obj-79",
					"maxclass" : "live.text",
					"numinlets" : 1,
					"numoutlets" : 2,
					"outlettype" : [ "", "" ],
					"parameter_enable" : 1,
					"patching_rect" : [ 235.5, 606.0, 87.0, 28.0 ],
					"presentation" : 1,
					"presentation_rect" : [ 144.5, 162.0, 77.5, 24.0 ],
					"saved_attribute_attributes" : 					{
						"valueof" : 						{
							"parameter_longname" : "live.text[4]",
							"parameter_shortname" : "live.text",
							"parameter_type" : 2,
							"parameter_mmax" : 1.0,
							"parameter_enum" : [ "val1", "val2" ]
						}

					}
,
					"text" : "READY",
					"texton" : "TESTING",
					"varname" : "live.text[4]"
				}

			}
, 			{
				"box" : 				{
					"id" : "obj-26",
					"maxclass" : "newobj",
					"numinlets" : 1,
					"numoutlets" : 1,
					"outlettype" : [ "bang" ],
					"patching_rect" : [ 16.5, 636.0, 60.0, 22.0 ],
					"style" : "",
					"text" : "loadbang"
				}

			}
, 			{
				"box" : 				{
					"id" : "obj-157",
					"maxclass" : "number",
					"numinlets" : 1,
					"numoutlets" : 2,
					"outlettype" : [ "", "bang" ],
					"parameter_enable" : 0,
					"patching_rect" : [ 237.5, 810.0, 50.0, 22.0 ],
					"style" : ""
				}

			}
, 			{
				"box" : 				{
					"id" : "obj-127",
					"maxclass" : "newobj",
					"numinlets" : 2,
					"numoutlets" : 1,
					"outlettype" : [ "float" ],
					"patching_rect" : [ 235.5, 720.0, 50.0, 22.0 ],
					"style" : "",
					"text" : "* 1000."
				}

			}
, 			{
				"box" : 				{
					"id" : "obj-114",
					"maxclass" : "newobj",
					"numinlets" : 5,
					"numoutlets" : 4,
					"outlettype" : [ "int", "", "", "int" ],
					"patching_rect" : [ 185.5, 779.0, 71.0, 22.0 ],
					"style" : "",
					"text" : "counter 0 0"
				}

			}
, 			{
				"box" : 				{
					"id" : "obj-113",
					"maxclass" : "newobj",
					"numinlets" : 2,
					"numoutlets" : 1,
					"outlettype" : [ "bang" ],
					"patching_rect" : [ 186.5, 752.0, 68.0, 22.0 ],
					"style" : "",
					"text" : "metro 500."
				}

			}
, 			{
				"box" : 				{
					"id" : "obj-118",
					"maxclass" : "toggle",
					"numinlets" : 1,
					"numoutlets" : 1,
					"outlettype" : [ "int" ],
					"parameter_enable" : 0,
					"patching_rect" : [ 170.5, 695.0, 24.0, 24.0 ],
					"style" : ""
				}

			}
, 			{
				"box" : 				{
					"id" : "obj-116",
					"maxclass" : "number",
					"numinlets" : 1,
					"numoutlets" : 2,
					"outlettype" : [ "", "bang" ],
					"parameter_enable" : 0,
					"patching_rect" : [ 185.5, 810.0, 50.0, 22.0 ],
					"style" : ""
				}

			}
, 			{
				"box" : 				{
					"id" : "obj-112",
					"maxclass" : "message",
					"numinlets" : 2,
					"numoutlets" : 1,
					"outlettype" : [ "" ],
					"patching_rect" : [ 64.0, 665.0, 34.0, 22.0 ],
					"style" : "",
					"text" : "start"
				}

			}
, 			{
				"box" : 				{
					"id" : "obj-47",
					"maxclass" : "message",
					"numinlets" : 2,
					"numoutlets" : 1,
					"outlettype" : [ "" ],
					"patching_rect" : [ 16.5, 665.0, 43.0, 22.0 ],
					"style" : "",
					"text" : "length"
				}

			}
, 			{
				"box" : 				{
					"id" : "obj-48",
					"maxclass" : "message",
					"numinlets" : 2,
					"numoutlets" : 1,
					"outlettype" : [ "" ],
					"patching_rect" : [ 100.0, 665.0, 33.0, 22.0 ],
					"style" : "",
					"text" : "next"
				}

			}
, 			{
				"box" : 				{
					"angle" : 270.0,
					"bordercolor" : [ 0.835449, 0.820702, 0.454902, 1.0 ],
					"grad1" : [ 0.862745, 0.870588, 0.878431, 1.0 ],
					"grad2" : [ 0.263682, 0.004541, 0.038797, 1.0 ],
					"id" : "obj-8",
					"maxclass" : "panel",
					"mode" : 1,
					"numinlets" : 1,
					"numoutlets" : 0,
					"patching_rect" : [ 8.0, 581.5, 719.0, 286.5 ],
					"proportion" : 0.39,
					"pt1" : [ 0.504951, 0.278261 ],
					"pt2" : [ 0.5, 0.95 ],
					"style" : ""
				}

			}
, 			{
				"box" : 				{
					"angle" : 269.577728,
					"grad1" : [ 0.231373, 0.121569, 0.305882, 1.0 ],
					"grad2" : [ 0.117536, 0.116592, 0.144338, 1.0 ],
					"id" : "obj-61",
					"maxclass" : "panel",
					"mode" : 1,
					"numinlets" : 1,
					"numoutlets" : 0,
					"patching_rect" : [ 327.5, 716.0, 128.0, 128.0 ],
					"presentation" : 1,
					"presentation_rect" : [ 9.0, 188.0, 222.0, 45.0 ],
					"proportion" : 0.39,
					"pt1" : [ 0.504951, 0.278261 ],
					"pt2" : [ 0.5, 0.95 ],
					"style" : "velvet"
				}

			}
, 			{
				"box" : 				{
					"id" : "obj-28",
					"maxclass" : "newobj",
					"numinlets" : 2,
					"numoutlets" : 1,
					"outlettype" : [ "int" ],
					"patching_rect" : [ 195.0, 162.0, 29.5, 22.0 ],
					"style" : "",
					"text" : "+ 1"
				}

			}
, 			{
				"box" : 				{
					"id" : "obj-13",
					"maxclass" : "newobj",
					"numinlets" : 1,
					"numoutlets" : 1,
					"outlettype" : [ "" ],
					"patching_rect" : [ 630.5, 67.0, 59.0, 22.0 ],
					"style" : "",
					"text" : "tosymbol"
				}

			}
, 			{
				"box" : 				{
					"id" : "obj-9",
					"maxclass" : "message",
					"numinlets" : 2,
					"numoutlets" : 1,
					"outlettype" : [ "" ],
					"patching_rect" : [ 227.0, 39.0, 33.0, 22.0 ],
					"style" : "",
					"text" : "next"
				}

			}
, 			{
				"box" : 				{
					"fontsize" : 14.0,
					"id" : "obj-37",
					"maxclass" : "comment",
					"numinlets" : 1,
					"numoutlets" : 0,
					"patching_rect" : [ 677.5, 140.0, 50.0, 22.0 ],
					"presentation" : 1,
					"presentation_rect" : [ 382.5, 25.5, 36.0, 22.0 ],
					"style" : "",
					"text" : "AM",
					"textcolor" : [ 1.0, 1.0, 1.0, 1.0 ]
				}

			}
, 			{
				"box" : 				{
					"id" : "obj-7",
					"maxclass" : "newobj",
					"numinlets" : 0,
					"numoutlets" : 1,
					"outlettype" : [ "" ],
					"patching_rect" : [ 677.5, 105.0, 51.0, 22.0 ],
					"style" : "",
					"text" : "r amPm"
				}

			}
, 			{
				"box" : 				{
					"id" : "obj-50",
					"maxclass" : "newobj",
					"numinlets" : 1,
					"numoutlets" : 1,
					"outlettype" : [ "" ],
					"patching_rect" : [ 601.5, 105.0, 74.0, 22.0 ],
					"style" : "",
					"text" : "prepend set"
				}

			}
, 			{
				"box" : 				{
					"fontsize" : 18.0,
					"id" : "obj-6",
					"maxclass" : "comment",
					"numinlets" : 1,
					"numoutlets" : 0,
					"patching_rect" : [ 601.5, 136.5, 81.0, 27.0 ],
					"presentation" : 1,
					"presentation_rect" : [ 308.5, 23.0, 81.0, 27.0 ],
					"style" : "",
					"text" : "10:07:28",
					"textcolor" : [ 1.0, 1.0, 1.0, 1.0 ]
				}

			}
, 			{
				"box" : 				{
					"id" : "obj-17",
					"maxclass" : "message",
					"numinlets" : 2,
					"numoutlets" : 1,
					"outlettype" : [ "" ],
					"patching_rect" : [ 285.5, 20.0, 112.0, 22.0 ],
					"presentation" : 1,
					"presentation_rect" : [ 17.0, 25.5, 112.0, 22.0 ],
					"style" : "",
					"text" : "timedMessages.txt"
				}

			}
, 			{
				"box" : 				{
					"id" : "obj-15",
					"maxclass" : "message",
					"numinlets" : 2,
					"numoutlets" : 1,
					"outlettype" : [ "" ],
					"patching_rect" : [ 285.5, 48.0, 37.0, 22.0 ],
					"style" : "",
					"text" : "open"
				}

			}
, 			{
				"box" : 				{
					"id" : "obj-1",
					"maxclass" : "newobj",
					"numinlets" : 0,
					"numoutlets" : 1,
					"outlettype" : [ "" ],
					"patching_rect" : [ 360.5, 61.0, 91.0, 22.0 ],
					"style" : "",
					"text" : "r collMessages"
				}

			}
, 			{
				"box" : 				{
					"id" : "obj-73",
					"maxclass" : "newobj",
					"numinlets" : 1,
					"numoutlets" : 0,
					"patching_rect" : [ 195.0, 189.0, 53.0, 22.0 ],
					"style" : "",
					"text" : "s length"
				}

			}
, 			{
				"box" : 				{
					"id" : "obj-23",
					"maxclass" : "newobj",
					"numinlets" : 2,
					"numoutlets" : 2,
					"outlettype" : [ "", "" ],
					"patching_rect" : [ 254.0, 135.0, 54.0, 22.0 ],
					"style" : "",
					"text" : "route int"
				}

			}
, 			{
				"box" : 				{
					"id" : "obj-66",
					"linecount" : 3,
					"maxclass" : "message",
					"numinlets" : 2,
					"numoutlets" : 1,
					"outlettype" : [ "" ],
					"patching_rect" : [ 562.0, 491.0, 127.0, 49.0 ],
					"style" : "",
					"text" : ";\rmax launch_browser http://bangaud.io"
				}

			}
, 			{
				"box" : 				{
					"handoff" : "",
					"id" : "obj-62",
					"maxclass" : "ubutton",
					"numinlets" : 1,
					"numoutlets" : 4,
					"outlettype" : [ "bang", "bang", "", "int" ],
					"patching_rect" : [ 562.0, 350.870636, 106.0, 131.258698 ],
					"presentation" : 1,
					"presentation_rect" : [ 295.25, 80.0, 116.0, 118.5 ]
				}

			}
, 			{
				"box" : 				{
					"autofit" : 1,
					"forceaspect" : 1,
					"id" : "obj-49",
					"maxclass" : "fpic",
					"numinlets" : 1,
					"numoutlets" : 1,
					"outlettype" : [ "jit_matrix" ],
					"patching_rect" : [ 565.0, 466.0, 100.0, 12.546469 ],
					"pic" : "/Users/splatatat/Documents/BANGaudio/bngbngtype.png",
					"presentation" : 1,
					"presentation_rect" : [ 306.0, 174.582718, 91.0, 11.417286 ]
				}

			}
, 			{
				"box" : 				{
					"autofit" : 1,
					"forceaspect" : 1,
					"id" : "obj-42",
					"maxclass" : "fpic",
					"numinlets" : 1,
					"numoutlets" : 1,
					"outlettype" : [ "jit_matrix" ],
					"patching_rect" : [ 565.0, 358.370636, 100.0, 98.258705 ],
					"pic" : "/Users/splatatat/Documents/BANGaudio/3DBANG.png",
					"presentation" : 1,
					"presentation_rect" : [ 311.75, 88.5, 79.5, 78.115669 ]
				}

			}
, 			{
				"box" : 				{
					"id" : "obj-25",
					"maxclass" : "number",
					"numinlets" : 1,
					"numoutlets" : 2,
					"outlettype" : [ "", "bang" ],
					"parameter_enable" : 0,
					"patching_rect" : [ 298.0, 341.25, 50.0, 22.0 ],
					"presentation" : 1,
					"presentation_rect" : [ 17.0, 130.0, 50.0, 22.0 ],
					"style" : ""
				}

			}
, 			{
				"box" : 				{
					"id" : "obj-155",
					"maxclass" : "newobj",
					"numinlets" : 1,
					"numoutlets" : 1,
					"outlettype" : [ "" ],
					"patching_rect" : [ 298.0, 314.25, 92.0, 22.0 ],
					"style" : "",
					"text" : "loadmess 7474"
				}

			}
, 			{
				"box" : 				{
					"id" : "obj-153",
					"maxclass" : "newobj",
					"numinlets" : 1,
					"numoutlets" : 1,
					"outlettype" : [ "" ],
					"patching_rect" : [ 25.0, 291.5, 115.0, 22.0 ],
					"style" : "",
					"text" : "loadmess 127 0 0 1"
				}

			}
, 			{
				"box" : 				{
					"id" : "obj-150",
					"maxclass" : "newobj",
					"numinlets" : 1,
					"numoutlets" : 4,
					"outlettype" : [ "int", "int", "int", "int" ],
					"patching_rect" : [ 25.0, 315.5, 89.0, 22.0 ],
					"style" : "",
					"text" : "unpack 0 0 0 0"
				}

			}
, 			{
				"box" : 				{
					"id" : "obj-135",
					"maxclass" : "comment",
					"numinlets" : 1,
					"numoutlets" : 0,
					"patching_rect" : [ 354.0, 341.25, 53.0, 20.0 ],
					"presentation" : 1,
					"presentation_rect" : [ 18.0, 112.5, 53.0, 20.0 ],
					"style" : "",
					"text" : "port",
					"textcolor" : [ 1.0, 1.0, 1.0, 1.0 ]
				}

			}
, 			{
				"box" : 				{
					"id" : "obj-133",
					"maxclass" : "comment",
					"numinlets" : 1,
					"numoutlets" : 0,
					"patching_rect" : [ 28.0, 368.0, 228.0, 20.0 ],
					"presentation" : 1,
					"presentation_rect" : [ 17.0, 61.0, 228.0, 20.0 ],
					"style" : "",
					"text" : "i.p. address",
					"textcolor" : [ 1.0, 1.0, 1.0, 1.0 ]
				}

			}
, 			{
				"box" : 				{
					"id" : "obj-69",
					"maxclass" : "newobj",
					"numinlets" : 0,
					"numoutlets" : 1,
					"outlettype" : [ "" ],
					"patching_rect" : [ 415.0, 173.0, 39.0, 22.0 ],
					"style" : "",
					"text" : "r port"
				}

			}
, 			{
				"box" : 				{
					"id" : "obj-68",
					"maxclass" : "newobj",
					"numinlets" : 0,
					"numoutlets" : 1,
					"outlettype" : [ "" ],
					"patching_rect" : [ 368.5, 173.0, 41.0, 22.0 ],
					"style" : "",
					"text" : "r host"
				}

			}
, 			{
				"box" : 				{
					"id" : "obj-67",
					"maxclass" : "newobj",
					"numinlets" : 1,
					"numoutlets" : 0,
					"patching_rect" : [ 25.0, 473.5, 43.0, 22.0 ],
					"style" : "",
					"text" : "s host"
				}

			}
, 			{
				"box" : 				{
					"id" : "obj-63",
					"maxclass" : "newobj",
					"numinlets" : 1,
					"numoutlets" : 0,
					"patching_rect" : [ 298.0, 412.25, 41.0, 22.0 ],
					"style" : "",
					"text" : "s port"
				}

			}
, 			{
				"box" : 				{
					"id" : "obj-45",
					"maxclass" : "number",
					"numinlets" : 1,
					"numoutlets" : 2,
					"outlettype" : [ "", "bang" ],
					"parameter_enable" : 0,
					"patching_rect" : [ 183.0, 346.5, 50.0, 22.0 ],
					"presentation" : 1,
					"presentation_rect" : [ 175.0, 83.0, 50.0, 22.0 ],
					"style" : ""
				}

			}
, 			{
				"box" : 				{
					"id" : "obj-44",
					"maxclass" : "number",
					"numinlets" : 1,
					"numoutlets" : 2,
					"outlettype" : [ "", "bang" ],
					"parameter_enable" : 0,
					"patching_rect" : [ 130.5, 346.5, 50.0, 22.0 ],
					"presentation" : 1,
					"presentation_rect" : [ 122.5, 83.0, 50.0, 22.0 ],
					"style" : ""
				}

			}
, 			{
				"box" : 				{
					"id" : "obj-43",
					"maxclass" : "number",
					"numinlets" : 1,
					"numoutlets" : 2,
					"outlettype" : [ "", "bang" ],
					"parameter_enable" : 0,
					"patching_rect" : [ 77.5, 346.5, 50.0, 22.0 ],
					"presentation" : 1,
					"presentation_rect" : [ 69.5, 83.0, 50.0, 22.0 ],
					"style" : ""
				}

			}
, 			{
				"box" : 				{
					"id" : "obj-41",
					"maxclass" : "number",
					"numinlets" : 1,
					"numoutlets" : 2,
					"outlettype" : [ "", "bang" ],
					"parameter_enable" : 0,
					"patching_rect" : [ 25.0, 346.5, 50.0, 22.0 ],
					"presentation" : 1,
					"presentation_rect" : [ 17.0, 83.0, 50.0, 22.0 ],
					"style" : ""
				}

			}
, 			{
				"box" : 				{
					"id" : "obj-39",
					"maxclass" : "newobj",
					"numinlets" : 1,
					"numoutlets" : 1,
					"outlettype" : [ "" ],
					"patching_rect" : [ 25.0, 443.5, 81.0, 22.0 ],
					"style" : "",
					"text" : "prepend host"
				}

			}
, 			{
				"box" : 				{
					"id" : "obj-38",
					"maxclass" : "newobj",
					"numinlets" : 4,
					"numoutlets" : 1,
					"outlettype" : [ "" ],
					"patching_rect" : [ 25.0, 393.0, 93.0, 22.0 ],
					"style" : "",
					"text" : "pak 127 0 0 1"
				}

			}
, 			{
				"box" : 				{
					"id" : "obj-4",
					"maxclass" : "newobj",
					"numinlets" : 1,
					"numoutlets" : 0,
					"patching_rect" : [ 289.0, 216.0, 140.0, 22.0 ],
					"style" : "",
					"text" : "udpsend 127.0.0.1 7474"
				}

			}
, 			{
				"box" : 				{
					"id" : "obj-3",
					"maxclass" : "newobj",
					"numinlets" : 0,
					"numoutlets" : 2,
					"outlettype" : [ "", "list" ],
					"patcher" : 					{
						"fileversion" : 1,
						"appversion" : 						{
							"major" : 7,
							"minor" : 3,
							"revision" : 3,
							"architecture" : "x86",
							"modernui" : 1
						}
,
						"rect" : [ 620.0, 152.0, 776.0, 605.0 ],
						"bglocked" : 0,
						"openinpresentation" : 0,
						"default_fontsize" : 12.0,
						"default_fontface" : 0,
						"default_fontname" : "Arial",
						"gridonopen" : 1,
						"gridsize" : [ 15.0, 15.0 ],
						"gridsnaponopen" : 1,
						"objectsnaponopen" : 1,
						"statusbarvisible" : 2,
						"toolbarvisible" : 1,
						"lefttoolbarpinned" : 0,
						"toptoolbarpinned" : 0,
						"righttoolbarpinned" : 0,
						"bottomtoolbarpinned" : 0,
						"toolbars_unpinned_last_save" : 0,
						"tallnewobj" : 0,
						"boxanimatetime" : 200,
						"enablehscroll" : 1,
						"enablevscroll" : 1,
						"devicewidth" : 0.0,
						"description" : "",
						"digest" : "",
						"tags" : "",
						"style" : "",
						"subpatcher_template" : "",
						"boxes" : [ 							{
								"box" : 								{
									"comment" : "",
									"id" : "obj-2",
									"index" : 2,
									"maxclass" : "outlet",
									"numinlets" : 1,
									"numoutlets" : 0,
									"patching_rect" : [ 234.5, 379.0, 30.0, 30.0 ],
									"style" : ""
								}

							}
, 							{
								"box" : 								{
									"id" : "obj-38",
									"maxclass" : "newobj",
									"numinlets" : 1,
									"numoutlets" : 0,
									"patching_rect" : [ 144.0, 481.0, 53.0, 22.0 ],
									"style" : "",
									"text" : "s amPm"
								}

							}
, 							{
								"box" : 								{
									"id" : "obj-35",
									"maxclass" : "message",
									"numinlets" : 2,
									"numoutlets" : 1,
									"outlettype" : [ "" ],
									"patching_rect" : [ 144.0, 424.0, 48.0, 22.0 ],
									"style" : "",
									"text" : "set PM"
								}

							}
, 							{
								"box" : 								{
									"id" : "obj-25",
									"maxclass" : "message",
									"numinlets" : 2,
									"numoutlets" : 1,
									"outlettype" : [ "" ],
									"patching_rect" : [ 161.0, 448.0, 47.0, 22.0 ],
									"style" : "",
									"text" : "set AM"
								}

							}
, 							{
								"box" : 								{
									"id" : "obj-23",
									"maxclass" : "newobj",
									"numinlets" : 2,
									"numoutlets" : 2,
									"outlettype" : [ "bang", "" ],
									"patching_rect" : [ 144.0, 395.0, 36.0, 22.0 ],
									"style" : "",
									"text" : "sel 1"
								}

							}
, 							{
								"box" : 								{
									"id" : "obj-15",
									"maxclass" : "newobj",
									"numinlets" : 2,
									"numoutlets" : 1,
									"outlettype" : [ "int" ],
									"patching_rect" : [ 144.0, 366.0, 41.5, 22.0 ],
									"style" : "",
									"text" : "> 11"
								}

							}
, 							{
								"box" : 								{
									"fontname" : "Arial",
									"fontsize" : 13.0,
									"id" : "obj-43",
									"maxclass" : "newobj",
									"numinlets" : 5,
									"numoutlets" : 2,
									"outlettype" : [ "", "" ],
									"patching_rect" : [ 169.5, 314.0, 341.0, 23.0 ],
									"style" : "",
									"text" : "combine h : m : s @triggers 0 2 4 6 @padding 2 0 2 0 2 0"
								}

							}
, 							{
								"box" : 								{
									"id" : "obj-45",
									"maxclass" : "newobj",
									"numinlets" : 1,
									"numoutlets" : 1,
									"outlettype" : [ "bang" ],
									"patching_rect" : [ 53.0, 11.0, 60.0, 22.0 ],
									"style" : "redness",
									"text" : "loadbang"
								}

							}
, 							{
								"box" : 								{
									"bubble" : 1,
									"id" : "obj-6",
									"linecount" : 2,
									"maxclass" : "comment",
									"numinlets" : 1,
									"numoutlets" : 0,
									"patching_rect" : [ 144.0, 138.5, 129.0, 37.0 ],
									"style" : "redness",
									"text" : "click on 'date' and 'ticks' to output "
								}

							}
, 							{
								"box" : 								{
									"id" : "obj-3",
									"maxclass" : "number",
									"numinlets" : 1,
									"numoutlets" : 2,
									"outlettype" : [ "", "bang" ],
									"parameter_enable" : 0,
									"patching_rect" : [ 119.0, 251.5, 44.0, 22.0 ],
									"style" : "redness"
								}

							}
, 							{
								"box" : 								{
									"id" : "obj-4",
									"maxclass" : "number",
									"numinlets" : 1,
									"numoutlets" : 2,
									"outlettype" : [ "", "bang" ],
									"parameter_enable" : 0,
									"patching_rect" : [ 64.0, 251.5, 44.0, 22.0 ],
									"style" : "redness"
								}

							}
, 							{
								"box" : 								{
									"id" : "obj-5",
									"maxclass" : "number",
									"numinlets" : 1,
									"numoutlets" : 2,
									"outlettype" : [ "", "bang" ],
									"parameter_enable" : 0,
									"patching_rect" : [ 9.0, 251.5, 44.0, 22.0 ],
									"style" : "redness"
								}

							}
, 							{
								"box" : 								{
									"id" : "obj-22",
									"maxclass" : "newobj",
									"numinlets" : 1,
									"numoutlets" : 3,
									"outlettype" : [ "int", "int", "int" ],
									"patching_rect" : [ 9.0, 219.5, 120.0, 22.0 ],
									"style" : "redness",
									"text" : "unpack 0 0 0"
								}

							}
, 							{
								"box" : 								{
									"id" : "obj-14",
									"maxclass" : "comment",
									"numinlets" : 1,
									"numoutlets" : 0,
									"patching_rect" : [ 230.0, 277.5, 49.0, 20.0 ],
									"style" : "redness",
									"text" : "Minute"
								}

							}
, 							{
								"box" : 								{
									"id" : "obj-10",
									"maxclass" : "comment",
									"numinlets" : 1,
									"numoutlets" : 0,
									"patching_rect" : [ 285.0, 277.5, 54.0, 20.0 ],
									"style" : "redness",
									"text" : "Second"
								}

							}
, 							{
								"box" : 								{
									"id" : "obj-11",
									"maxclass" : "comment",
									"numinlets" : 1,
									"numoutlets" : 0,
									"patching_rect" : [ 119.0, 277.5, 37.0, 20.0 ],
									"style" : "redness",
									"text" : "Year"
								}

							}
, 							{
								"box" : 								{
									"id" : "obj-12",
									"maxclass" : "comment",
									"numinlets" : 1,
									"numoutlets" : 0,
									"patching_rect" : [ 64.0, 277.5, 32.0, 20.0 ],
									"style" : "redness",
									"text" : "Day"
								}

							}
, 							{
								"box" : 								{
									"id" : "obj-13",
									"maxclass" : "comment",
									"numinlets" : 1,
									"numoutlets" : 0,
									"patching_rect" : [ 9.0, 277.5, 46.0, 20.0 ],
									"style" : "redness",
									"text" : "Month"
								}

							}
, 							{
								"box" : 								{
									"id" : "obj-16",
									"maxclass" : "comment",
									"numinlets" : 1,
									"numoutlets" : 0,
									"patching_rect" : [ 351.0, 277.5, 42.0, 20.0 ],
									"style" : "redness",
									"text" : "Ticks"
								}

							}
, 							{
								"box" : 								{
									"id" : "obj-17",
									"maxclass" : "number",
									"numinlets" : 1,
									"numoutlets" : 2,
									"outlettype" : [ "", "bang" ],
									"parameter_enable" : 0,
									"patching_rect" : [ 351.0, 251.5, 77.0, 22.0 ],
									"style" : "redness"
								}

							}
, 							{
								"box" : 								{
									"id" : "obj-18",
									"maxclass" : "number",
									"numinlets" : 1,
									"numoutlets" : 2,
									"outlettype" : [ "", "bang" ],
									"parameter_enable" : 0,
									"patching_rect" : [ 285.0, 251.5, 44.0, 22.0 ],
									"style" : "redness"
								}

							}
, 							{
								"box" : 								{
									"id" : "obj-19",
									"maxclass" : "number",
									"numinlets" : 1,
									"numoutlets" : 2,
									"outlettype" : [ "", "bang" ],
									"parameter_enable" : 0,
									"patching_rect" : [ 230.0, 251.5, 44.0, 22.0 ],
									"style" : "redness"
								}

							}
, 							{
								"box" : 								{
									"id" : "obj-20",
									"maxclass" : "number",
									"numinlets" : 1,
									"numoutlets" : 2,
									"outlettype" : [ "", "bang" ],
									"parameter_enable" : 0,
									"patching_rect" : [ 175.0, 251.5, 44.0, 22.0 ],
									"style" : "redness"
								}

							}
, 							{
								"box" : 								{
									"id" : "obj-21",
									"maxclass" : "newobj",
									"numinlets" : 1,
									"numoutlets" : 3,
									"outlettype" : [ "int", "int", "int" ],
									"patching_rect" : [ 175.0, 214.5, 120.0, 22.0 ],
									"style" : "redness",
									"text" : "unpack 0 0 0"
								}

							}
, 							{
								"box" : 								{
									"id" : "obj-26",
									"maxclass" : "newobj",
									"numinlets" : 1,
									"numoutlets" : 3,
									"outlettype" : [ "list", "list", "int" ],
									"patching_rect" : [ 9.0, 186.5, 330.0, 22.0 ],
									"style" : "redness",
									"text" : "date"
								}

							}
, 							{
								"box" : 								{
									"id" : "obj-27",
									"maxclass" : "newobj",
									"numinlets" : 2,
									"numoutlets" : 1,
									"outlettype" : [ "bang" ],
									"patching_rect" : [ 53.0, 82.5, 71.0, 22.0 ],
									"style" : "redness",
									"text" : "metro 1000"
								}

							}
, 							{
								"box" : 								{
									"id" : "obj-28",
									"maxclass" : "toggle",
									"numinlets" : 1,
									"numoutlets" : 1,
									"outlettype" : [ "int" ],
									"parameter_enable" : 0,
									"patching_rect" : [ 53.0, 39.5, 24.0, 24.0 ],
									"presentation_rect" : [ 76.0, 132.5, 24.0, 24.0 ],
									"style" : "redness"
								}

							}
, 							{
								"box" : 								{
									"bubble" : 1,
									"id" : "obj-29",
									"maxclass" : "comment",
									"numinlets" : 1,
									"numoutlets" : 0,
									"patching_rect" : [ 82.0, 37.0, 123.0, 24.0 ],
									"style" : "redness",
									"text" : "Start/Stop \"clock\""
								}

							}
, 							{
								"box" : 								{
									"id" : "obj-30",
									"maxclass" : "message",
									"numinlets" : 2,
									"numoutlets" : 1,
									"outlettype" : [ "" ],
									"patching_rect" : [ 9.0, 141.5, 35.0, 22.0 ],
									"style" : "redness",
									"text" : "date"
								}

							}
, 							{
								"box" : 								{
									"id" : "obj-31",
									"maxclass" : "message",
									"numinlets" : 2,
									"numoutlets" : 1,
									"outlettype" : [ "" ],
									"patching_rect" : [ 53.0, 141.5, 34.0, 22.0 ],
									"style" : "redness",
									"text" : "time"
								}

							}
, 							{
								"box" : 								{
									"id" : "obj-32",
									"maxclass" : "message",
									"numinlets" : 2,
									"numoutlets" : 1,
									"outlettype" : [ "" ],
									"patching_rect" : [ 97.0, 141.5, 36.0, 22.0 ],
									"style" : "redness",
									"text" : "ticks"
								}

							}
, 							{
								"box" : 								{
									"id" : "obj-33",
									"maxclass" : "button",
									"numinlets" : 1,
									"numoutlets" : 1,
									"outlettype" : [ "bang" ],
									"patching_rect" : [ 53.0, 114.5, 24.0, 24.0 ],
									"presentation_rect" : [ 76.0, 207.5, 24.0, 24.0 ],
									"style" : "redness"
								}

							}
, 							{
								"box" : 								{
									"id" : "obj-34",
									"maxclass" : "comment",
									"numinlets" : 1,
									"numoutlets" : 0,
									"patching_rect" : [ 175.0, 277.5, 38.0, 20.0 ],
									"style" : "redness",
									"text" : "Hour"
								}

							}
, 							{
								"box" : 								{
									"comment" : "",
									"id" : "obj-1",
									"index" : 1,
									"maxclass" : "outlet",
									"numinlets" : 1,
									"numoutlets" : 0,
									"patching_rect" : [ 25.0, 371.0, 30.0, 30.0 ],
									"style" : "redness",
									"varname" : "u911000481"
								}

							}
, 							{
								"box" : 								{
									"angle" : 270.0,
									"bordercolor" : [ 0.835941, 0.83802, 0.894216, 1.0 ],
									"grad1" : [ 0.862745, 0.870588, 0.878431, 1.0 ],
									"grad2" : [ 0.263682, 0.004541, 0.038797, 1.0 ],
									"id" : "obj-9",
									"maxclass" : "panel",
									"mode" : 1,
									"numinlets" : 1,
									"numoutlets" : 0,
									"patching_rect" : [ 0.0, 0.0, 499.0, 513.0 ],
									"proportion" : 0.39,
									"style" : "redness"
								}

							}
 ],
						"lines" : [ 							{
								"patchline" : 								{
									"destination" : [ "obj-23", 0 ],
									"disabled" : 0,
									"hidden" : 0,
									"source" : [ "obj-15", 0 ]
								}

							}
, 							{
								"patchline" : 								{
									"destination" : [ "obj-43", 4 ],
									"disabled" : 0,
									"hidden" : 0,
									"source" : [ "obj-18", 0 ]
								}

							}
, 							{
								"patchline" : 								{
									"destination" : [ "obj-43", 2 ],
									"disabled" : 0,
									"hidden" : 0,
									"source" : [ "obj-19", 0 ]
								}

							}
, 							{
								"patchline" : 								{
									"destination" : [ "obj-15", 0 ],
									"disabled" : 0,
									"hidden" : 0,
									"order" : 1,
									"source" : [ "obj-20", 0 ]
								}

							}
, 							{
								"patchline" : 								{
									"destination" : [ "obj-43", 0 ],
									"disabled" : 0,
									"hidden" : 0,
									"order" : 0,
									"source" : [ "obj-20", 0 ]
								}

							}
, 							{
								"patchline" : 								{
									"destination" : [ "obj-18", 0 ],
									"disabled" : 0,
									"hidden" : 0,
									"midpoints" : [ 285.5, 246.0, 294.5, 246.0 ],
									"source" : [ "obj-21", 2 ]
								}

							}
, 							{
								"patchline" : 								{
									"destination" : [ "obj-19", 0 ],
									"disabled" : 0,
									"hidden" : 0,
									"midpoints" : [ 235.0, 246.0, 239.5, 246.0 ],
									"source" : [ "obj-21", 1 ]
								}

							}
, 							{
								"patchline" : 								{
									"destination" : [ "obj-20", 0 ],
									"disabled" : 0,
									"hidden" : 0,
									"source" : [ "obj-21", 0 ]
								}

							}
, 							{
								"patchline" : 								{
									"destination" : [ "obj-3", 0 ],
									"disabled" : 0,
									"hidden" : 0,
									"midpoints" : [ 119.5, 243.0, 128.5, 243.0 ],
									"source" : [ "obj-22", 2 ]
								}

							}
, 							{
								"patchline" : 								{
									"destination" : [ "obj-4", 0 ],
									"disabled" : 0,
									"hidden" : 0,
									"midpoints" : [ 69.0, 243.0, 73.5, 243.0 ],
									"source" : [ "obj-22", 1 ]
								}

							}
, 							{
								"patchline" : 								{
									"destination" : [ "obj-5", 0 ],
									"disabled" : 0,
									"hidden" : 0,
									"midpoints" : [ 18.5, 243.0, 18.5, 243.0 ],
									"source" : [ "obj-22", 0 ]
								}

							}
, 							{
								"patchline" : 								{
									"destination" : [ "obj-25", 0 ],
									"disabled" : 0,
									"hidden" : 0,
									"source" : [ "obj-23", 1 ]
								}

							}
, 							{
								"patchline" : 								{
									"destination" : [ "obj-35", 0 ],
									"disabled" : 0,
									"hidden" : 0,
									"source" : [ "obj-23", 0 ]
								}

							}
, 							{
								"patchline" : 								{
									"destination" : [ "obj-38", 0 ],
									"disabled" : 0,
									"hidden" : 0,
									"source" : [ "obj-25", 0 ]
								}

							}
, 							{
								"patchline" : 								{
									"destination" : [ "obj-17", 0 ],
									"disabled" : 0,
									"hidden" : 0,
									"midpoints" : [ 329.5, 237.0, 360.5, 237.0 ],
									"source" : [ "obj-26", 2 ]
								}

							}
, 							{
								"patchline" : 								{
									"destination" : [ "obj-2", 0 ],
									"disabled" : 0,
									"hidden" : 0,
									"order" : 0,
									"source" : [ "obj-26", 1 ]
								}

							}
, 							{
								"patchline" : 								{
									"destination" : [ "obj-21", 0 ],
									"disabled" : 0,
									"hidden" : 0,
									"midpoints" : [ 174.0, 210.0, 184.5, 210.0 ],
									"order" : 1,
									"source" : [ "obj-26", 1 ]
								}

							}
, 							{
								"patchline" : 								{
									"destination" : [ "obj-22", 0 ],
									"disabled" : 0,
									"hidden" : 0,
									"midpoints" : [ 18.5, 210.0, 18.5, 210.0 ],
									"source" : [ "obj-26", 0 ]
								}

							}
, 							{
								"patchline" : 								{
									"destination" : [ "obj-33", 0 ],
									"disabled" : 0,
									"hidden" : 0,
									"midpoints" : [ 62.5, 108.0, 62.5, 108.0 ],
									"source" : [ "obj-27", 0 ]
								}

							}
, 							{
								"patchline" : 								{
									"destination" : [ "obj-27", 0 ],
									"disabled" : 0,
									"hidden" : 0,
									"midpoints" : [ 62.5, 66.0, 62.5, 66.0 ],
									"source" : [ "obj-28", 0 ]
								}

							}
, 							{
								"patchline" : 								{
									"destination" : [ "obj-26", 0 ],
									"disabled" : 0,
									"hidden" : 0,
									"midpoints" : [ 18.5, 165.0, 18.5, 165.0 ],
									"source" : [ "obj-30", 0 ]
								}

							}
, 							{
								"patchline" : 								{
									"destination" : [ "obj-26", 0 ],
									"disabled" : 0,
									"hidden" : 0,
									"midpoints" : [ 62.5, 165.0, 18.5, 165.0 ],
									"source" : [ "obj-31", 0 ]
								}

							}
, 							{
								"patchline" : 								{
									"destination" : [ "obj-26", 0 ],
									"disabled" : 0,
									"hidden" : 0,
									"midpoints" : [ 106.5, 165.0, 18.5, 165.0 ],
									"source" : [ "obj-32", 0 ]
								}

							}
, 							{
								"patchline" : 								{
									"destination" : [ "obj-31", 0 ],
									"disabled" : 0,
									"hidden" : 0,
									"midpoints" : [ 62.5, 141.0, 62.5, 141.0 ],
									"source" : [ "obj-33", 0 ]
								}

							}
, 							{
								"patchline" : 								{
									"destination" : [ "obj-38", 0 ],
									"disabled" : 0,
									"hidden" : 0,
									"source" : [ "obj-35", 0 ]
								}

							}
, 							{
								"patchline" : 								{
									"destination" : [ "obj-1", 0 ],
									"disabled" : 0,
									"hidden" : 0,
									"source" : [ "obj-43", 0 ]
								}

							}
, 							{
								"patchline" : 								{
									"destination" : [ "obj-28", 0 ],
									"disabled" : 0,
									"hidden" : 0,
									"source" : [ "obj-45", 0 ]
								}

							}
 ]
					}
,
					"patching_rect" : [ 601.5, 39.0, 48.0, 22.0 ],
					"saved_object_attributes" : 					{
						"description" : "",
						"digest" : "",
						"globalpatchername" : "",
						"style" : "",
						"tags" : ""
					}
,
					"style" : "",
					"text" : "p clock"
				}

			}
, 			{
				"box" : 				{
					"id" : "obj-46",
					"maxclass" : "newobj",
					"numinlets" : 1,
					"numoutlets" : 1,
					"outlettype" : [ "" ],
					"patching_rect" : [ 25.0, 417.0, 131.0, 22.0 ],
					"style" : "",
					"text" : "tosymbol @separator ."
				}

			}
, 			{
				"box" : 				{
					"fontname" : "Arial",
					"fontsize" : 13.0,
					"id" : "obj-55",
					"linecount" : 2,
					"maxclass" : "message",
					"numinlets" : 2,
					"numoutlets" : 1,
					"outlettype" : [ "" ],
					"patching_rect" : [ 298.0, 368.25, 48.0, 38.0 ],
					"style" : "",
					"text" : "port $1"
				}

			}
, 			{
				"box" : 				{
					"id" : "obj-2",
					"maxclass" : "newobj",
					"numinlets" : 1,
					"numoutlets" : 4,
					"outlettype" : [ "", "", "", "" ],
					"patching_rect" : [ 254.0, 104.0, 192.0, 22.0 ],
					"saved_object_attributes" : 					{
						"embed" : 0
					}
,
					"style" : "",
					"text" : "coll timedMessages"
				}

			}
, 			{
				"box" : 				{
					"angle" : 270.0,
					"bordercolor" : [ 0.835449, 0.820702, 0.454902, 1.0 ],
					"grad1" : [ 0.862745, 0.870588, 0.878431, 1.0 ],
					"grad2" : [ 0.263682, 0.004541, 0.038797, 1.0 ],
					"id" : "obj-5",
					"maxclass" : "panel",
					"mode" : 1,
					"numinlets" : 1,
					"numoutlets" : 0,
					"patching_rect" : [ 8.0, -7.5, 509.5, 269.875 ],
					"proportion" : 0.39,
					"pt1" : [ 0.504951, 0.278261 ],
					"pt2" : [ 0.5, 0.95 ],
					"style" : ""
				}

			}
, 			{
				"box" : 				{
					"angle" : 270.0,
					"bordercolor" : [ 0.835449, 0.820702, 0.454902, 1.0 ],
					"grad1" : [ 0.862745, 0.870588, 0.878431, 1.0 ],
					"grad2" : [ 0.263682, 0.004541, 0.038797, 1.0 ],
					"id" : "obj-10",
					"maxclass" : "panel",
					"mode" : 1,
					"numinlets" : 1,
					"numoutlets" : 0,
					"patching_rect" : [ 8.0, 275.0, 420.0, 296.5 ],
					"proportion" : 0.39,
					"pt1" : [ 0.504951, 0.278261 ],
					"pt2" : [ 0.5, 0.95 ],
					"style" : ""
				}

			}
, 			{
				"box" : 				{
					"angle" : 269.577728,
					"grad1" : [ 0.231373, 0.121569, 0.305882, 1.0 ],
					"grad2" : [ 0.117536, 0.116592, 0.144338, 1.0 ],
					"id" : "obj-58",
					"maxclass" : "panel",
					"mode" : 1,
					"numinlets" : 1,
					"numoutlets" : 0,
					"patching_rect" : [ 197.5, 103.0, 128.0, 128.0 ],
					"presentation" : 1,
					"presentation_rect" : [ 242.25, 14.0, 222.0, 45.0 ],
					"proportion" : 0.39,
					"pt1" : [ 0.504951, 0.278261 ],
					"pt2" : [ 0.5, 0.95 ],
					"style" : "velvet"
				}

			}
, 			{
				"box" : 				{
					"angle" : 269.577728,
					"grad1" : [ 0.231373, 0.121569, 0.305882, 1.0 ],
					"grad2" : [ 0.117536, 0.116592, 0.144338, 1.0 ],
					"id" : "obj-52",
					"maxclass" : "panel",
					"mode" : 1,
					"numinlets" : 1,
					"numoutlets" : 0,
					"patching_rect" : [ 182.5, 28.0, 128.0, 128.0 ],
					"presentation" : 1,
					"presentation_rect" : [ 9.0, 112.5, 222.0, 45.0 ],
					"proportion" : 0.39,
					"pt1" : [ 0.504951, 0.278261 ],
					"pt2" : [ 0.5, 0.95 ],
					"style" : "velvet"
				}

			}
, 			{
				"box" : 				{
					"angle" : 269.577728,
					"grad1" : [ 0.231373, 0.121569, 0.305882, 1.0 ],
					"grad2" : [ 0.117536, 0.116592, 0.144338, 1.0 ],
					"id" : "obj-51",
					"maxclass" : "panel",
					"mode" : 1,
					"numinlets" : 1,
					"numoutlets" : 0,
					"patching_rect" : [ 167.5, 13.0, 128.0, 128.0 ],
					"presentation" : 1,
					"presentation_rect" : [ 9.0, 61.0, 222.0, 49.5 ],
					"proportion" : 0.39,
					"pt1" : [ 0.504951, 0.278261 ],
					"pt2" : [ 0.5, 0.95 ],
					"style" : "velvet"
				}

			}
, 			{
				"box" : 				{
					"angle" : 269.577728,
					"grad1" : [ 0.231373, 0.121569, 0.305882, 1.0 ],
					"grad2" : [ 0.117536, 0.116592, 0.144338, 1.0 ],
					"id" : "obj-59",
					"maxclass" : "panel",
					"mode" : 1,
					"numinlets" : 1,
					"numoutlets" : 0,
					"patching_rect" : [ 197.5, 128.0, 128.0, 128.0 ],
					"presentation" : 1,
					"presentation_rect" : [ 8.0, 14.0, 222.0, 45.0 ],
					"proportion" : 0.39,
					"pt1" : [ 0.504951, 0.278261 ],
					"pt2" : [ 0.5, 0.95 ],
					"style" : "velvet"
				}

			}
, 			{
				"box" : 				{
					"id" : "obj-14",
					"maxclass" : "panel",
					"numinlets" : 1,
					"numoutlets" : 0,
					"patching_rect" : [ 167.5, 13.0, 128.0, 128.0 ],
					"presentation" : 1,
					"presentation_rect" : [ -6.5, -1.5, 476.0, 239.0 ],
					"style" : ""
				}

			}
, 			{
				"box" : 				{
					"angle" : 270.0,
					"bordercolor" : [ 0.835449, 0.820702, 0.454902, 1.0 ],
					"grad1" : [ 0.862745, 0.870588, 0.878431, 1.0 ],
					"grad2" : [ 0.263682, 0.004541, 0.038797, 1.0 ],
					"id" : "obj-20",
					"maxclass" : "panel",
					"mode" : 1,
					"numinlets" : 1,
					"numoutlets" : 0,
					"patching_rect" : [ 433.0, 276.75, 395.5, 294.75 ],
					"proportion" : 0.39,
					"pt1" : [ 0.504951, 0.278261 ],
					"pt2" : [ 0.5, 0.95 ],
					"style" : ""
				}

			}
, 			{
				"box" : 				{
					"angle" : 270.0,
					"bordercolor" : [ 0.835449, 0.820702, 0.454902, 1.0 ],
					"grad1" : [ 0.862745, 0.870588, 0.878431, 1.0 ],
					"grad2" : [ 0.263682, 0.004541, 0.038797, 1.0 ],
					"id" : "obj-11",
					"maxclass" : "panel",
					"mode" : 1,
					"numinlets" : 1,
					"numoutlets" : 0,
					"patching_rect" : [ 521.5, 11.0625, 307.0, 251.3125 ],
					"proportion" : 0.39,
					"pt1" : [ 0.504951, 0.278261 ],
					"pt2" : [ 0.5, 0.95 ],
					"style" : ""
				}

			}
 ],
		"lines" : [ 			{
				"patchline" : 				{
					"destination" : [ "obj-2", 0 ],
					"disabled" : 0,
					"hidden" : 0,
					"source" : [ "obj-1", 0 ]
				}

			}
, 			{
				"patchline" : 				{
					"destination" : [ "obj-75", 0 ],
					"disabled" : 0,
					"hidden" : 0,
					"source" : [ "obj-112", 0 ]
				}

			}
, 			{
				"patchline" : 				{
					"destination" : [ "obj-114", 0 ],
					"disabled" : 0,
					"hidden" : 0,
					"source" : [ "obj-113", 0 ]
				}

			}
, 			{
				"patchline" : 				{
					"destination" : [ "obj-116", 0 ],
					"disabled" : 0,
					"hidden" : 0,
					"order" : 0,
					"source" : [ "obj-114", 0 ]
				}

			}
, 			{
				"patchline" : 				{
					"destination" : [ "obj-157", 0 ],
					"disabled" : 0,
					"hidden" : 0,
					"source" : [ "obj-114", 3 ]
				}

			}
, 			{
				"patchline" : 				{
					"destination" : [ "obj-40", 0 ],
					"disabled" : 0,
					"hidden" : 0,
					"order" : 2,
					"source" : [ "obj-114", 2 ]
				}

			}
, 			{
				"patchline" : 				{
					"destination" : [ "obj-48", 0 ],
					"disabled" : 0,
					"hidden" : 0,
					"order" : 1,
					"source" : [ "obj-114", 0 ]
				}

			}
, 			{
				"patchline" : 				{
					"destination" : [ "obj-57", 0 ],
					"disabled" : 0,
					"hidden" : 0,
					"order" : 0,
					"source" : [ "obj-114", 2 ]
				}

			}
, 			{
				"patchline" : 				{
					"destination" : [ "obj-79", 0 ],
					"disabled" : 0,
					"hidden" : 0,
					"order" : 1,
					"source" : [ "obj-114", 2 ]
				}

			}
, 			{
				"patchline" : 				{
					"destination" : [ "obj-113", 0 ],
					"disabled" : 0,
					"hidden" : 0,
					"order" : 1,
					"source" : [ "obj-118", 0 ]
				}

			}
, 			{
				"patchline" : 				{
					"destination" : [ "obj-114", 2 ],
					"disabled" : 0,
					"hidden" : 0,
					"order" : 0,
					"source" : [ "obj-118", 0 ]
				}

			}
, 			{
				"patchline" : 				{
					"destination" : [ "obj-113", 1 ],
					"disabled" : 0,
					"hidden" : 0,
					"order" : 1,
					"source" : [ "obj-127", 0 ]
				}

			}
, 			{
				"patchline" : 				{
					"destination" : [ "obj-32", 1 ],
					"disabled" : 0,
					"hidden" : 0,
					"order" : 0,
					"source" : [ "obj-127", 0 ]
				}

			}
, 			{
				"patchline" : 				{
					"destination" : [ "obj-2", 0 ],
					"disabled" : 0,
					"hidden" : 0,
					"source" : [ "obj-13", 0 ]
				}

			}
, 			{
				"patchline" : 				{
					"destination" : [ "obj-2", 0 ],
					"disabled" : 0,
					"hidden" : 0,
					"source" : [ "obj-15", 0 ]
				}

			}
, 			{
				"patchline" : 				{
					"destination" : [ "obj-41", 0 ],
					"disabled" : 0,
					"hidden" : 0,
					"source" : [ "obj-150", 0 ]
				}

			}
, 			{
				"patchline" : 				{
					"destination" : [ "obj-43", 0 ],
					"disabled" : 0,
					"hidden" : 0,
					"source" : [ "obj-150", 1 ]
				}

			}
, 			{
				"patchline" : 				{
					"destination" : [ "obj-44", 0 ],
					"disabled" : 0,
					"hidden" : 0,
					"source" : [ "obj-150", 2 ]
				}

			}
, 			{
				"patchline" : 				{
					"destination" : [ "obj-45", 0 ],
					"disabled" : 0,
					"hidden" : 0,
					"source" : [ "obj-150", 3 ]
				}

			}
, 			{
				"patchline" : 				{
					"destination" : [ "obj-150", 0 ],
					"disabled" : 0,
					"hidden" : 0,
					"source" : [ "obj-153", 0 ]
				}

			}
, 			{
				"patchline" : 				{
					"destination" : [ "obj-18", 0 ],
					"disabled" : 0,
					"hidden" : 0,
					"source" : [ "obj-154", 0 ]
				}

			}
, 			{
				"patchline" : 				{
					"destination" : [ "obj-25", 0 ],
					"disabled" : 0,
					"hidden" : 0,
					"source" : [ "obj-155", 0 ]
				}

			}
, 			{
				"patchline" : 				{
					"destination" : [ "obj-15", 0 ],
					"disabled" : 0,
					"hidden" : 0,
					"source" : [ "obj-17", 0 ]
				}

			}
, 			{
				"patchline" : 				{
					"destination" : [ "obj-127", 0 ],
					"disabled" : 0,
					"hidden" : 0,
					"source" : [ "obj-18", 0 ]
				}

			}
, 			{
				"patchline" : 				{
					"destination" : [ "obj-23", 0 ],
					"disabled" : 0,
					"hidden" : 0,
					"source" : [ "obj-2", 0 ]
				}

			}
, 			{
				"patchline" : 				{
					"destination" : [ "obj-28", 0 ],
					"disabled" : 0,
					"hidden" : 0,
					"source" : [ "obj-23", 0 ]
				}

			}
, 			{
				"patchline" : 				{
					"destination" : [ "obj-4", 0 ],
					"disabled" : 0,
					"hidden" : 0,
					"order" : 1,
					"source" : [ "obj-23", 1 ]
				}

			}
, 			{
				"patchline" : 				{
					"destination" : [ "obj-65", 1 ],
					"disabled" : 0,
					"hidden" : 0,
					"order" : 0,
					"source" : [ "obj-23", 1 ]
				}

			}
, 			{
				"patchline" : 				{
					"destination" : [ "obj-55", 0 ],
					"disabled" : 0,
					"hidden" : 0,
					"source" : [ "obj-25", 0 ]
				}

			}
, 			{
				"patchline" : 				{
					"destination" : [ "obj-47", 0 ],
					"disabled" : 0,
					"hidden" : 0,
					"source" : [ "obj-26", 0 ]
				}

			}
, 			{
				"patchline" : 				{
					"destination" : [ "obj-73", 0 ],
					"disabled" : 0,
					"hidden" : 0,
					"source" : [ "obj-28", 0 ]
				}

			}
, 			{
				"patchline" : 				{
					"destination" : [ "obj-13", 0 ],
					"disabled" : 0,
					"hidden" : 0,
					"source" : [ "obj-3", 1 ]
				}

			}
, 			{
				"patchline" : 				{
					"destination" : [ "obj-50", 0 ],
					"disabled" : 0,
					"hidden" : 0,
					"source" : [ "obj-3", 0 ]
				}

			}
, 			{
				"patchline" : 				{
					"destination" : [ "obj-29", 0 ],
					"disabled" : 0,
					"hidden" : 0,
					"source" : [ "obj-30", 0 ]
				}

			}
, 			{
				"patchline" : 				{
					"destination" : [ "obj-30", 0 ],
					"disabled" : 0,
					"hidden" : 0,
					"source" : [ "obj-32", 0 ]
				}

			}
, 			{
				"patchline" : 				{
					"destination" : [ "obj-35", 0 ],
					"disabled" : 0,
					"hidden" : 0,
					"source" : [ "obj-36", 0 ]
				}

			}
, 			{
				"patchline" : 				{
					"destination" : [ "obj-46", 0 ],
					"disabled" : 0,
					"hidden" : 0,
					"source" : [ "obj-38", 0 ]
				}

			}
, 			{
				"patchline" : 				{
					"destination" : [ "obj-67", 0 ],
					"disabled" : 0,
					"hidden" : 0,
					"source" : [ "obj-39", 0 ]
				}

			}
, 			{
				"patchline" : 				{
					"destination" : [ "obj-118", 0 ],
					"disabled" : 0,
					"hidden" : 0,
					"source" : [ "obj-40", 0 ]
				}

			}
, 			{
				"patchline" : 				{
					"destination" : [ "obj-38", 0 ],
					"disabled" : 0,
					"hidden" : 0,
					"source" : [ "obj-41", 0 ]
				}

			}
, 			{
				"patchline" : 				{
					"destination" : [ "obj-38", 1 ],
					"disabled" : 0,
					"hidden" : 0,
					"source" : [ "obj-43", 0 ]
				}

			}
, 			{
				"patchline" : 				{
					"destination" : [ "obj-38", 2 ],
					"disabled" : 0,
					"hidden" : 0,
					"source" : [ "obj-44", 0 ]
				}

			}
, 			{
				"patchline" : 				{
					"destination" : [ "obj-38", 3 ],
					"disabled" : 0,
					"hidden" : 0,
					"source" : [ "obj-45", 0 ]
				}

			}
, 			{
				"patchline" : 				{
					"destination" : [ "obj-39", 0 ],
					"disabled" : 0,
					"hidden" : 0,
					"source" : [ "obj-46", 0 ]
				}

			}
, 			{
				"patchline" : 				{
					"destination" : [ "obj-75", 0 ],
					"disabled" : 0,
					"hidden" : 0,
					"source" : [ "obj-47", 0 ]
				}

			}
, 			{
				"patchline" : 				{
					"destination" : [ "obj-75", 0 ],
					"disabled" : 0,
					"hidden" : 0,
					"source" : [ "obj-48", 0 ]
				}

			}
, 			{
				"patchline" : 				{
					"destination" : [ "obj-6", 0 ],
					"disabled" : 0,
					"hidden" : 0,
					"source" : [ "obj-50", 0 ]
				}

			}
, 			{
				"patchline" : 				{
					"destination" : [ "obj-63", 0 ],
					"disabled" : 0,
					"hidden" : 0,
					"source" : [ "obj-55", 0 ]
				}

			}
, 			{
				"patchline" : 				{
					"destination" : [ "obj-32", 0 ],
					"disabled" : 0,
					"hidden" : 0,
					"source" : [ "obj-57", 0 ]
				}

			}
, 			{
				"patchline" : 				{
					"destination" : [ "obj-66", 0 ],
					"disabled" : 0,
					"hidden" : 0,
					"source" : [ "obj-62", 0 ]
				}

			}
, 			{
				"patchline" : 				{
					"destination" : [ "obj-4", 0 ],
					"disabled" : 0,
					"hidden" : 0,
					"source" : [ "obj-68", 0 ]
				}

			}
, 			{
				"patchline" : 				{
					"destination" : [ "obj-4", 0 ],
					"disabled" : 0,
					"hidden" : 0,
					"source" : [ "obj-69", 0 ]
				}

			}
, 			{
				"patchline" : 				{
					"destination" : [ "obj-37", 0 ],
					"disabled" : 0,
					"hidden" : 0,
					"source" : [ "obj-7", 0 ]
				}

			}
, 			{
				"patchline" : 				{
					"destination" : [ "obj-114", 4 ],
					"disabled" : 0,
					"hidden" : 0,
					"source" : [ "obj-74", 0 ]
				}

			}
, 			{
				"patchline" : 				{
					"destination" : [ "obj-112", 0 ],
					"disabled" : 0,
					"hidden" : 0,
					"order" : 2,
					"source" : [ "obj-79", 0 ]
				}

			}
, 			{
				"patchline" : 				{
					"destination" : [ "obj-118", 0 ],
					"disabled" : 0,
					"hidden" : 0,
					"order" : 1,
					"source" : [ "obj-79", 0 ]
				}

			}
, 			{
				"patchline" : 				{
					"destination" : [ "obj-40", 0 ],
					"disabled" : 0,
					"hidden" : 0,
					"order" : 0,
					"source" : [ "obj-79", 0 ]
				}

			}
, 			{
				"patchline" : 				{
					"destination" : [ "obj-47", 0 ],
					"disabled" : 0,
					"hidden" : 0,
					"order" : 3,
					"source" : [ "obj-79", 0 ]
				}

			}
, 			{
				"patchline" : 				{
					"destination" : [ "obj-2", 0 ],
					"disabled" : 0,
					"hidden" : 0,
					"source" : [ "obj-9", 0 ]
				}

			}
 ],
		"parameters" : 		{
			"obj-79" : [ "live.text[4]", "live.text", 0 ]
		}
,
		"dependency_cache" : [ 			{
				"name" : "timedMessages.txt",
				"bootpath" : "~/BangAlarm/Source",
				"type" : "TEXT",
				"implicit" : 1
			}
, 			{
				"name" : "3DBANG.png",
				"bootpath" : "~/Documents/BANGaudio",
				"type" : "PNG ",
				"implicit" : 1
			}
, 			{
				"name" : "bngbngtype.png",
				"bootpath" : "~/Documents/BANGaudio",
				"type" : "PNG ",
				"implicit" : 1
			}
 ],
		"autosave" : 0,
		"styles" : [ 			{
				"name" : "Jamoma_highlighted_orange",
				"default" : 				{
					"accentcolor" : [ 1.0, 0.5, 0.0, 1.0 ]
				}
,
				"parentstyle" : "",
				"multi" : 0
			}
, 			{
				"name" : "tatarism",
				"default" : 				{
					"fontname" : [ "Futura Medium" ],
					"bgcolor" : [ 0.19771, 0.188048, 0.201856, 1.0 ],
					"textcolor" : [ 1.0, 1.0, 1.0, 1.0 ],
					"textcolor_inverse" : [ 0.862745, 0.870588, 0.878431, 1.0 ],
					"bgfillcolor" : 					{
						"type" : "gradient",
						"color" : [ 0.290196, 0.309804, 0.301961, 1.0 ],
						"color1" : [ 0.372549, 0.196078, 0.486275, 1.0 ],
						"color2" : [ 0.290196, 0.309804, 0.301961, 1.0 ],
						"angle" : 270.0,
						"proportion" : 0.39,
						"autogradient" : 0
					}
,
					"color" : [ 0.701961, 0.415686, 0.886275, 1.0 ],
					"elementcolor" : [ 0.589653, 0.589635, 0.589645, 1.0 ]
				}
,
				"parentstyle" : "",
				"multi" : 0
			}
, 			{
				"name" : "tatarism-1",
				"default" : 				{
					"fontname" : [ "Futura Medium" ],
					"bgcolor" : [ 0.19771, 0.188048, 0.201856, 1.0 ],
					"textcolor" : [ 1.0, 1.0, 1.0, 1.0 ],
					"textcolor_inverse" : [ 0.862745, 0.870588, 0.878431, 1.0 ],
					"color" : [ 0.701961, 0.415686, 0.886275, 1.0 ],
					"elementcolor" : [ 0.589653, 0.589635, 0.589645, 1.0 ]
				}
,
				"parentstyle" : "",
				"multi" : 0
			}
, 			{
				"name" : "tatarism-1-1",
				"default" : 				{
					"fontname" : [ "Futura Medium" ],
					"bgcolor" : [ 0.19771, 0.188048, 0.201856, 1.0 ],
					"textcolor" : [ 1.0, 1.0, 1.0, 1.0 ],
					"textcolor_inverse" : [ 0.862745, 0.870588, 0.878431, 1.0 ],
					"bgfillcolor" : 					{
						"type" : "gradient",
						"color" : [ 0.290196, 0.309804, 0.301961, 1.0 ],
						"color1" : [ 0.372549, 0.196078, 0.486275, 1.0 ],
						"color2" : [ 0.290196, 0.309804, 0.301961, 1.0 ],
						"angle" : 270.0,
						"proportion" : 0.39,
						"autogradient" : 0
					}
,
					"color" : [ 0.701961, 0.415686, 0.886275, 1.0 ],
					"elementcolor" : [ 0.589653, 0.589635, 0.589645, 1.0 ]
				}
,
				"parentstyle" : "",
				"multi" : 0
			}
, 			{
				"name" : "tatarism-1-1-1",
				"default" : 				{
					"fontname" : [ "Futura Medium" ],
					"bgcolor" : [ 0.19771, 0.188048, 0.201856, 1.0 ],
					"textcolor" : [ 1.0, 1.0, 1.0, 1.0 ],
					"textcolor_inverse" : [ 0.862745, 0.870588, 0.878431, 1.0 ],
					"color" : [ 0.701961, 0.415686, 0.886275, 1.0 ],
					"elementcolor" : [ 0.589653, 0.589635, 0.589645, 1.0 ]
				}
,
				"parentstyle" : "",
				"multi" : 0
			}
, 			{
				"name" : "tatarism-1-2",
				"default" : 				{
					"fontname" : [ "Futura Medium" ],
					"bgcolor" : [ 0.19771, 0.188048, 0.201856, 1.0 ],
					"textcolor" : [ 1.0, 1.0, 1.0, 1.0 ],
					"textcolor_inverse" : [ 0.862745, 0.870588, 0.878431, 1.0 ],
					"color" : [ 0.701961, 0.415686, 0.886275, 1.0 ],
					"elementcolor" : [ 0.589653, 0.589635, 0.589645, 1.0 ]
				}
,
				"parentstyle" : "",
				"multi" : 0
			}
, 			{
				"name" : "tatarism-2",
				"default" : 				{
					"fontname" : [ "Futura Medium" ],
					"bgcolor" : [ 0.19771, 0.188048, 0.201856, 1.0 ],
					"textcolor" : [ 1.0, 1.0, 1.0, 1.0 ],
					"textcolor_inverse" : [ 0.862745, 0.870588, 0.878431, 1.0 ],
					"color" : [ 0.701961, 0.415686, 0.886275, 1.0 ],
					"elementcolor" : [ 0.589653, 0.589635, 0.589645, 1.0 ]
				}
,
				"parentstyle" : "",
				"multi" : 0
			}
, 			{
				"name" : "tatarism-3",
				"default" : 				{
					"fontname" : [ "Futura Medium" ],
					"bgcolor" : [ 0.19771, 0.188048, 0.201856, 1.0 ],
					"textcolor" : [ 1.0, 1.0, 1.0, 1.0 ],
					"textcolor_inverse" : [ 0.862745, 0.870588, 0.878431, 1.0 ],
					"color" : [ 0.701961, 0.415686, 0.886275, 1.0 ],
					"elementcolor" : [ 0.589653, 0.589635, 0.589645, 1.0 ]
				}
,
				"parentstyle" : "",
				"multi" : 0
			}
, 			{
				"name" : "tatarism-3-1",
				"default" : 				{
					"fontname" : [ "Futura Medium" ],
					"bgcolor" : [ 0.19771, 0.188048, 0.201856, 1.0 ],
					"textcolor" : [ 1.0, 1.0, 1.0, 1.0 ],
					"textcolor_inverse" : [ 0.862745, 0.870588, 0.878431, 1.0 ],
					"bgfillcolor" : 					{
						"type" : "gradient",
						"color" : [ 0.290196, 0.309804, 0.301961, 1.0 ],
						"color1" : [ 0.372549, 0.196078, 0.486275, 1.0 ],
						"color2" : [ 0.290196, 0.309804, 0.301961, 1.0 ],
						"angle" : 270.0,
						"proportion" : 0.39,
						"autogradient" : 0
					}
,
					"color" : [ 0.701961, 0.415686, 0.886275, 1.0 ],
					"elementcolor" : [ 0.589653, 0.589635, 0.589645, 1.0 ]
				}
,
				"parentstyle" : "",
				"multi" : 0
			}
, 			{
				"name" : "tatarism-4",
				"default" : 				{
					"fontname" : [ "Futura Medium" ],
					"bgcolor" : [ 0.19771, 0.188048, 0.201856, 1.0 ],
					"textcolor" : [ 1.0, 1.0, 1.0, 1.0 ],
					"textcolor_inverse" : [ 0.862745, 0.870588, 0.878431, 1.0 ],
					"color" : [ 0.701961, 0.415686, 0.886275, 1.0 ],
					"elementcolor" : [ 0.589653, 0.589635, 0.589645, 1.0 ]
				}
,
				"parentstyle" : "",
				"multi" : 0
			}
 ]
	}

}
